<svg height="512" viewBox="0 0 256 256" width="512" xmlns="http://www.w3.org/2000/svg"><g fill="#65c1d6"><path d="m133.531 103.833h-28.542a2.5 2.5 0 0 1 0-5h28.542a2.5 2.5 0 0 1 0 5z"/><path d="m94.4 103.833h-15.067a2.5 2.5 0 0 1 0-5h15.067a2.5 2.5 0 1 1 0 5z"/><path d="m148.3 123.656h-21.8a2.5 2.5 0 1 1 0-5h21.8a2.5 2.5 0 0 1 0 5z"/><path d="m115.911 123.656h-36.578a2.5 2.5 0 0 1 0-5h36.578a2.5 2.5 0 0 1 0 5z"/><path d="m134.32 143.479h-29.331a2.5 2.5 0 0 1 0-5h29.331a2.5 2.5 0 0 1 0 5z"/><path d="m94.4 143.479h-15.067a2.5 2.5 0 0 1 0-5h15.067a2.5 2.5 0 1 1 0 5z"/><path d="m175.333 123.656h-16.445a2.5 2.5 0 1 1 0-5h16.445a2.5 2.5 0 1 1 0 5z"/></g><path d="m213.383 224.421h-9.863a2.5 2.5 0 0 1 -2.5-2.5v-6.969a2.5 2.5 0 0 1 2.5-2.5h9.863a2.5 2.5 0 0 1 2.5 2.5v6.969a2.5 2.5 0 0 1 -2.5 2.5zm-7.363-5h4.863v-1.969h-4.863z" fill="#ebe7f2"/><path d="m156.733 213.436h-91.595v-170.872h125.724v62.1a2.5 2.5 0 0 0 5 0v-64.6a2.5 2.5 0 0 0 -2.5-2.5h-130.724a2.5 2.5 0 0 0 -2.5 2.5v175.872a2.5 2.5 0 0 0 2.5 2.5h94.1a2.5 2.5 0 0 0 0-5z" fill="#846f75"/><path d="m191.6 111.732-30.554 30.554a2.5 2.5 0 0 0 1.768 4.268h18.042v19.635a2.5 2.5 0 0 0 5 0v-22.135a2.5 2.5 0 0 0 -2.5-2.5h-14.512l24.518-24.519 24.518 24.519h-14.506a2.5 2.5 0 0 0 -2.5 2.5v22.135a2.5 2.5 0 0 0 5 0v-19.635h18.041a2.5 2.5 0 0 0 1.768-4.268l-30.553-30.554a2.574 2.574 0 0 0 -3.53 0z" fill="#846f75"/><path d="m233.251 197.881-9.791-24.722a2.5 2.5 0 0 0 -2.324-1.579h-56.272a2.5 2.5 0 0 0 -2.324 1.579l-9.791 24.722a2.5 2.5 0 1 0 4.648 1.842l4.967-12.54v43.17a2.5 2.5 0 0 0 2.5 2.5h56.272a2.5 2.5 0 0 0 2.5-2.5v-43.17l4.967 12.54a2.5 2.5 0 0 0 4.648-1.842zm-15.81-21.3-7.9 19.722h-33.085l-7.9-19.722zm-50.077 51.273v-40.8l5.079 12.682a2.5 2.5 0 0 0 2.322 1.571h36.47a2.5 2.5 0 0 0 2.322-1.571l5.079-12.682v40.8z" fill="#846f75"/><path d="m149.487 67.5h-70.154a2.5 2.5 0 0 1 0-5h70.154a2.5 2.5 0 0 1 0 5z" fill="#65c1d6"/><path d="m114.411 186.244h-35.078a2.5 2.5 0 0 1 0-5h35.078a2.5 2.5 0 0 1 0 5z" fill="#65c1d6"/></svg>